<svg width="110" height="20" viewBox="0 0 110 20" fill="none" xmlns="http://www.w3.org/2000/svg">
<g clip-path="url(#clip0_5543_7686)">
<mask id="mask0_5543_7686" style="mask-type:luminance" maskUnits="userSpaceOnUse" x="1" y="4" width="26" height="10">
<path d="M1.71008 5.92649C1.71008 5.92649 3.76425 5.36583 4.69153 5.36583C7.07294 5.36583 11.31 8.80036 13.9817 10.4988C17.9995 13.0657 19.3817 13.9874 22.0544 13.9874C25.7089 13.9874 26.8729 11.9085 26.8729 11.9085C26.8729 11.9085 26.2544 12.6492 24.1817 12.6492C21.3268 12.6492 19.182 10.9141 16.0729 8.69091C12.9824 6.48616 9.38244 4.24451 6.47294 4.24451C2.98207 4.24451 1.70898 5.92541 1.70898 5.92541" fill="#BABABA"/>
</mask>
<g mask="url(#mask0_5543_7686)">
<path d="M26.8739 4.24542H1.71094V13.9689H26.8739V4.24542Z" fill="#8644F0"/>
</g>
<g opacity="0.36">
<mask id="mask1_5543_7686" style="mask-type:luminance" maskUnits="userSpaceOnUse" x="13" y="6" width="5" height="7">
<path d="M17.8355 6.97595H13.5078V12.868H17.8355V6.97595Z" fill="#BABABA"/>
</mask>
<g mask="url(#mask1_5543_7686)">
<mask id="mask2_5543_7686" style="mask-type:luminance" maskUnits="userSpaceOnUse" x="13" y="6" width="5" height="7">
<path d="M13.5069 10.1939C13.6706 10.3023 13.8342 10.4108 13.9793 10.5007C15.6157 11.5495 16.8157 12.3086 17.8334 12.8682V9.97588C17.2694 9.57781 16.6879 9.1625 16.0694 8.71029C15.2513 8.11381 14.3786 7.53573 13.5059 6.97516V10.1927L13.5069 10.1939Z" fill="#BABABA"/>
</mask>
<g mask="url(#mask2_5543_7686)">
<path d="M17.8355 6.97595H13.5078V12.868H17.8355V6.97595Z" fill="#8644F0"/>
</g>
</g>
</g>
<mask id="mask3_5543_7686" style="mask-type:luminance" maskUnits="userSpaceOnUse" x="14" y="3" width="13" height="18">
<path d="M14.4355 10.3188V17.8016C14.4355 20.3687 17.0178 20.0249 17.0178 20.0249C17.0178 20.0249 17.0363 15.3617 17.0363 12.5962C17.0363 9.83075 17.1639 6.93848 21.582 4.95063C21.9825 4.76955 22.3458 4.78796 22.7275 4.80636C22.8726 4.80636 23.0187 4.82486 23.1639 4.82486C24.9454 4.77063 26.4551 5.49397 26.4551 5.49397C26.4551 5.49397 24.582 3.36078 21.2187 3.36078C17.8555 3.36078 14.4355 6.12618 14.4355 10.3188Z" fill="#BABABA"/>
</mask>
<g mask="url(#mask3_5543_7686)">
<path d="M26.453 3.36078H14.4355V20.3502H26.453V3.36078Z" fill="#8644F0"/>
</g>
<mask id="mask4_5543_7686" style="mask-type:luminance" maskUnits="userSpaceOnUse" x="1" y="0" width="13" height="14">
<path d="M5.8743 0.324402C5.8743 0.324402 10.5292 3.01717 10.8924 3.83049C11.1106 4.30011 11.2928 4.9334 11.2928 5.94528C11.2928 10.6085 7.0743 12.7958 4.61971 12.7958C2.60152 12.7958 1.47461 11.5488 1.47461 11.5488C1.47461 11.5488 3.65644 13.9704 7.05679 13.9704C11.3473 13.9704 13.9295 10.2648 13.9295 7.55355C13.9295 5.40303 12.8932 3.90213 12.0204 2.83607C10.1299 0.522854 7.25637 0.305969 6.23863 0.305969C6.02046 0.305969 5.8743 0.324402 5.8743 0.324402Z" fill="#BABABA"/>
</mask>
<g mask="url(#mask4_5543_7686)">
<path d="M13.9266 0.305969H1.47266V13.9704H13.9266V0.305969Z" fill="#8644F0"/>
</g>
<mask id="mask5_5543_7686" style="mask-type:luminance" maskUnits="userSpaceOnUse" x="1" y="0" width="10" height="4">
<path d="M1.49023 1.44416C1.49023 1.44416 1.50878 1.8053 1.7815 2.6013C2.07278 3.41466 2.3455 3.61313 2.54514 3.61313C2.74478 3.61313 3.81823 2.6371 6.18119 2.6371C8.54401 2.6371 10.872 3.84845 10.8905 3.84845C10.8905 3.83004 10.3452 2.5113 9.07202 1.51683C8.12627 0.776122 6.67202 0.342327 5.85385 0.342327C3.48988 0.323894 1.49023 1.44416 1.49023 1.44416Z" fill="#BABABA"/>
</mask>
<g mask="url(#mask5_5543_7686)">
<path d="M0.490234 0.630876L10.0543 -2.35144L11.9087 3.52318L2.32733 6.50551L0.490234 0.630876Z" fill="#8644F0"/>
</g>
<mask id="mask6_5543_7686" style="mask-type:luminance" maskUnits="userSpaceOnUse" x="0" y="5" width="7" height="8">
<path d="M1.72622 5.90946C1.23531 6.18059 0.453125 7.64459 0.453125 8.83755C0.453125 9.83193 0.944033 12.0184 3.2895 12.6148C5.23461 13.1213 6.38002 12.4878 6.38002 12.4878C6.38002 12.4878 3.65277 12.0726 3.65277 8.83647C3.65277 6.75749 5.50727 5.47457 5.50727 5.47457C5.50727 5.47457 5.18002 5.34772 4.05311 5.34772C3.36258 5.34772 2.48986 5.47566 1.72622 5.90946Z" fill="#BABABA"/>
</mask>
<g mask="url(#mask6_5543_7686)">
<path d="M6.38002 5.34851H0.453125V13.1383H6.38002V5.34851Z" fill="#8644F0"/>
</g>
<path d="M0.453125 8.83727C0.453125 7.6443 1.23531 6.1803 1.72622 5.90918C2.48986 5.49378 3.34403 5.34851 4.05311 5.34851C5.18002 5.34851 5.48986 5.49269 5.48986 5.49269C5.48986 5.49269 3.63531 6.77561 3.63531 8.85459C3.63531 12.0896 6.36261 12.5061 6.36261 12.5061C6.36261 12.5061 5.78111 12.8314 4.74478 12.8314C4.32694 12.8314 3.83603 12.7771 3.27203 12.633C0.945125 12.018 0.453125 9.83173 0.453125 8.83727C0.453125 9.83173 0.945125 12.018 3.29058 12.6145C3.85458 12.7587 4.34553 12.813 4.76327 12.813C5.79969 12.813 6.38111 12.4876 6.38111 12.4876C6.38111 12.4876 3.65386 12.0722 3.65386 8.83618C3.65386 6.75721 5.50836 5.47429 5.50836 5.47429C5.50836 5.47429 5.18111 5.33002 4.07169 5.33002C3.36258 5.33002 2.5084 5.47429 1.74477 5.89068C1.23531 6.1803 0.453125 7.6443 0.453125 8.83727Z" fill="#8644F0"/>
<mask id="mask7_5543_7686" style="mask-type:luminance" maskUnits="userSpaceOnUse" x="21" y="4" width="7" height="9">
<path d="M21.5098 4.98755C21.5284 4.98755 24.7824 5.47558 24.7824 8.65639C24.7824 11.5845 22.5101 12.4521 22.5101 12.4521C22.5101 12.4521 24.2915 12.9758 26.1646 12.3794C27.1464 12.0724 27.8915 10.5715 27.8915 8.8732C27.8915 7.93305 27.4006 6.28896 26.5093 5.54713C25.7818 4.95065 24.7454 4.66111 23.8553 4.66111C22.0738 4.64271 21.5098 4.98755 21.5098 4.98755Z" fill="#BABABA"/>
</mask>
<g mask="url(#mask7_5543_7686)">
<path d="M27.8915 4.64368H21.5098V12.9757H27.8915V4.64368Z" fill="#8644F0"/>
</g>
<path fill-rule="evenodd" clip-rule="evenodd" d="M39.8167 12.2354H37.8171C37.3262 12.1268 37.072 11.7474 37.0174 11.1509C36.7807 11.4945 36.508 11.7658 36.1807 11.9458C35.2534 12.488 33.6902 12.5422 32.7258 12.0726C31.6894 11.5662 31.0709 10.4275 31.4353 9.30721C31.7811 8.20429 32.8174 7.69885 33.8898 7.51786C34.744 7.37359 35.7629 7.37359 36.9629 7.39091C36.9814 6.83025 36.8353 6.43334 36.5811 6.17954C35.9996 5.52892 34.7811 5.60155 33.9989 5.78155C33.3803 5.92583 32.7989 6.19695 32.4356 6.50489L32.3451 4.71554C33.1993 4.40859 34.1451 4.17328 35.1269 4.17328C36.2363 4.15488 37.6545 4.39019 38.3636 5.31202C38.7269 5.72733 38.836 6.30649 38.8905 6.90297C38.9451 7.71626 38.9265 8.61969 38.9265 9.45148V11.0782C38.9265 11.1324 38.9451 11.1682 38.9451 11.2224C39.0356 11.8547 39.3269 12.18 39.8178 12.2342M36.9629 8.67392C36.9629 9.54144 36.6716 10.2648 36.0542 10.6618C35.2905 11.1682 33.7818 11.1856 33.5811 10.1011C33.5265 9.77566 33.6356 9.39617 33.9814 9.12495C34.6905 8.5827 36.1273 8.6381 36.9629 8.67392Z" fill="#8644F0"/>
<path fill-rule="evenodd" clip-rule="evenodd" d="M58.5256 12.2354H56.526C56.0351 12.1268 55.7809 11.7474 55.7263 11.1509C55.4896 11.4945 55.2169 11.7658 54.8896 11.9458C53.9623 12.488 52.3991 12.5422 51.4172 12.0726C50.3809 11.5662 49.7623 10.4275 50.1267 9.30721C50.4725 8.20429 51.5089 7.69885 52.5813 7.51786C53.4354 7.37359 54.4543 7.37359 55.6543 7.39091C55.6729 6.83025 55.5267 6.43334 55.2725 6.17954C54.6911 5.52892 53.4725 5.60155 52.6903 5.78155C52.0718 5.92583 51.4903 6.19695 51.1271 6.50489L51.0725 4.71554C51.9267 4.40859 52.8725 4.17328 53.8543 4.17328C54.9638 4.15488 56.382 4.39019 57.0911 5.31202C57.4543 5.72733 57.5634 6.30649 57.618 6.90297C57.6725 7.71626 57.654 8.61969 57.654 9.45148V11.0782C57.654 11.1324 57.6725 11.1682 57.6725 11.2224C57.7631 11.8547 58.0543 12.18 58.5267 12.2342M55.6903 8.67392C55.6903 9.54144 55.3991 10.2648 54.7816 10.6618C54.018 11.1682 52.5093 11.1856 52.3085 10.1011C52.254 9.77566 52.3631 9.39617 52.7089 9.12495C53.3994 8.5827 54.8547 8.6381 55.6903 8.67392Z" fill="#8644F0"/>
<path fill-rule="evenodd" clip-rule="evenodd" d="M47.0011 4.26392H49.2013V12.2164C47.8563 12.289 46.9651 11.6383 47.0011 10.5896V4.26392Z" fill="#8644F0"/>
<path fill-rule="evenodd" clip-rule="evenodd" d="M47.1095 0.902474C47.0188 0.866682 46.9272 0.829816 46.8912 0.884041C46.8552 0.9567 46.8181 0.97405 46.7636 1.02828C46.7091 1.04672 46.8181 1.40784 46.7821 1.58895C46.7821 1.66161 46.8367 1.64317 46.8552 1.66161C46.8912 1.69739 46.8912 1.75161 46.8737 1.78849C46.9284 1.82428 46.9468 1.84271 46.8924 1.87851C46.8564 1.93273 46.8737 1.96852 46.8924 2.02273C46.9108 2.11275 46.9655 2.16698 47.02 2.20385C47.1476 2.27651 47.2021 2.23963 47.3472 2.34808C47.4017 2.4023 47.4377 2.47497 47.4748 2.58342C47.4388 2.89032 47.7836 2.87297 47.9472 2.81875C48.0017 2.80031 47.9112 2.74609 47.9472 2.7103C47.9657 2.69187 48.0204 2.69187 48.0748 2.67452C48.2386 2.60186 48.2386 2.6203 48.2386 2.4934C48.2386 2.42074 48.2386 2.45762 48.3291 2.43918C48.3836 2.43918 48.3291 2.36653 48.4381 2.38495C48.5287 2.42075 48.5287 2.40339 48.5287 2.33073C48.5287 2.24073 48.6192 2.24073 48.7108 2.25808C48.9291 2.3123 48.7655 2.18541 48.856 2.18541C49.0196 2.18541 49.0556 2.16698 49.2017 1.93273C49.2377 1.87851 49.2377 1.80584 49.2377 1.75161C49.2564 1.64317 49.2924 1.67896 49.2924 1.58895C49.3108 1.51629 49.2737 1.42627 49.2192 1.35362C49.1461 1.24517 49.1461 1.26361 49.0916 1.13672C49.0556 1.00984 49.0371 0.955617 48.928 0.829816C48.8375 0.702931 48.6912 0.59448 48.5821 0.486029C48.4731 0.396029 48.4916 0.396029 48.4186 0.304928C48.4 0.286486 48.3826 0.269136 48.364 0.269136C48.2735 0.233353 48.1644 0.233352 48.0912 0.21491C48.0552 0.196477 48.0181 0.21491 47.9821 0.233353C47.9091 0.287578 47.9636 0.269136 47.8731 0.287578C47.8371 0.287578 47.7826 0.341803 47.7455 0.377578C47.7268 0.396029 47.7095 0.396029 47.6723 0.413379C47.5992 0.486029 47.6364 0.521822 47.5447 0.521822C47.496 0.521822 47.4596 0.551831 47.4356 0.611831C47.4171 0.666056 47.3996 0.720282 47.3266 0.720282C47.2175 0.720282 47.2906 0.738724 47.236 0.774498C47.2175 0.79295 47.1815 0.774498 47.1628 0.79294C47.1628 0.847166 47.1628 0.901392 47.1084 0.901392" fill="#8644F0"/>
<path fill-rule="evenodd" clip-rule="evenodd" d="M40.1071 12.0537C40.1256 11.4389 40.4345 10.9335 40.9439 10.7707C41.2896 10.6808 41.5254 10.7707 41.8526 10.8066C42.434 10.8792 43.0166 10.825 43.3985 10.6439C44.017 10.3544 43.9985 9.72213 43.4345 9.37828C42.7799 8.9987 41.4894 8.89025 40.6886 8.18541C40.1976 7.75152 39.9795 7.15521 40.0155 6.55864C40.07 5.54685 40.7606 4.85933 41.6705 4.51657C42.7067 4.11858 44.125 4.11858 45.6882 4.51657L45.5606 6.05329C44.4336 5.6553 43.033 5.58376 42.47 6.08911C42.1067 6.41446 42.1242 6.82977 42.5606 7.08358C43.5065 7.5901 44.6879 7.49888 45.542 8.4034C46.3416 9.25251 46.2326 10.6992 45.433 11.4941C44.8875 12.0549 44.0507 12.3075 43.178 12.3802C42.2867 12.4528 41.233 12.3444 40.105 12.0549" fill="#8644F0"/>
<path fill-rule="evenodd" clip-rule="evenodd" d="M66.3442 4.77019C67.1625 5.36667 67.29 6.16156 67.29 7.12029C67.3086 8.85551 67.3086 10.5721 67.3086 12.3074C65.6907 12.4158 65.2359 11.7651 65.1814 11.187L65.1627 8.38589C65.1627 7.82523 65.1814 7.1387 64.926 6.61485C64.6347 6.05419 64.0719 5.83729 63.4894 5.87419C62.562 5.92841 61.9806 6.5433 61.7625 7.39241C61.6719 7.79049 61.6534 8.09735 61.6534 8.51274L61.6174 12.2184H59.4355V4.31798H61.4896V5.54667C61.8715 4.98601 62.4715 4.5891 63.162 4.3722C64.1985 4.06525 65.4715 4.11948 66.3442 4.77019Z" fill="#8644F0"/>
<path fill-rule="evenodd" clip-rule="evenodd" d="M85.8889 12.2354H83.8893C83.3983 12.1268 83.1442 11.7474 83.0896 11.1509C82.8529 11.4945 82.5802 11.7658 82.2529 11.9458C81.3256 12.488 79.7623 12.5422 78.7805 12.0726C77.7442 11.5662 77.1256 10.4275 77.49 9.30721C77.8358 8.20429 78.8722 7.69885 79.9445 7.51786C80.7987 7.37359 81.8176 7.37359 83.0176 7.39091C83.0362 6.83025 82.89 6.43334 82.6358 6.17954C82.0543 5.52892 80.8358 5.60155 80.0536 5.78155C79.4351 5.92583 78.8536 6.19695 78.4903 6.50489L78.4358 4.71554C79.29 4.40859 80.2358 4.17328 81.2176 4.17328C82.3271 4.15488 83.7453 4.39019 84.4543 5.31202C84.8176 5.72733 84.9267 6.30649 84.9813 6.90297C85.0358 7.71626 85.0173 8.61969 85.0173 9.45148V11.0782C85.0173 11.1324 85.0358 11.1682 85.0358 11.2224C85.1089 11.8547 85.418 12.18 85.8898 12.2342M83.0536 8.67392C83.0536 9.54144 82.7623 10.2648 82.1449 10.6618C81.3813 11.1682 79.8725 11.1856 79.6718 10.1011C79.6173 9.77566 79.7263 9.39617 80.0722 9.12495C80.7627 8.5827 82.218 8.6381 83.0536 8.67392Z" fill="#8644F0"/>
<path fill-rule="evenodd" clip-rule="evenodd" d="M86.1085 4.26392H88.3082V12.2164C86.9638 12.289 86.0724 11.6383 86.1085 10.5896V4.26392Z" fill="#8644F0"/>
<path fill-rule="evenodd" clip-rule="evenodd" d="M86.2169 0.902474C86.1257 0.866682 86.0346 0.829816 85.9985 0.884041C85.9624 0.9567 85.9254 0.97405 85.8713 1.02828C85.8162 1.04672 85.9254 1.40784 85.8893 1.58895C85.8893 1.66161 85.9444 1.64317 85.9624 1.66161C85.9985 1.69739 85.9985 1.75161 85.9814 1.78849C86.0165 1.82428 86.0544 1.84271 85.9994 1.87851C85.9633 1.93273 85.9814 1.96852 85.9994 2.02273C86.0184 2.11275 86.0725 2.16698 86.1275 2.20385C86.2547 2.27651 86.3098 2.23963 86.4541 2.34808C86.5092 2.4023 86.5453 2.47497 86.5823 2.58342C86.5462 2.89032 86.8908 2.87297 87.0541 2.81875C87.1092 2.80031 87.0181 2.74609 87.0541 2.7103C87.0731 2.69187 87.1272 2.69187 87.1823 2.67452C87.3456 2.60186 87.3456 2.6203 87.3456 2.4934C87.3456 2.42074 87.3456 2.45762 87.4367 2.43918C87.4908 2.43918 87.4367 2.36653 87.545 2.38495C87.6054 2.40882 87.6361 2.39074 87.6361 2.33073C87.6361 2.24073 87.7263 2.24073 87.8184 2.25808C88.0367 2.3123 87.8725 2.18541 87.9636 2.18541C88.1269 2.18541 88.163 2.16698 88.3092 1.93273C88.3453 1.87851 88.3453 1.80584 88.3453 1.75161C88.3633 1.64317 88.3994 1.67896 88.3994 1.58895C88.4184 1.51629 88.3814 1.42627 88.3263 1.35362C88.2532 1.24517 88.2532 1.26361 88.1991 1.13672C88.163 1.00984 88.1441 0.955617 88.0349 0.829816C87.9447 0.702931 87.7985 0.59448 87.6893 0.486029C87.5802 0.396029 87.5991 0.396029 87.526 0.304928C87.5071 0.286486 87.4899 0.269136 87.471 0.269136C87.3808 0.233353 87.2716 0.233352 87.1985 0.21491C87.1624 0.196477 87.1254 0.21491 87.0893 0.233353C87.0163 0.287578 87.0713 0.269136 86.9802 0.287578C86.9441 0.287578 86.8899 0.341803 86.8529 0.377578C86.834 0.396029 86.8169 0.396029 86.7799 0.413379C86.7068 0.486029 86.7438 0.521822 86.6517 0.521822C86.603 0.521822 86.5669 0.551831 86.5426 0.611831C86.5245 0.666056 86.5065 0.720282 86.4334 0.720282C86.3251 0.720282 86.3982 0.738724 86.3432 0.774498C86.3071 0.79295 86.289 0.774498 86.2701 0.79294C86.2701 0.847166 86.2701 0.901392 86.2159 0.901392" fill="#8644F0"/>
<path fill-rule="evenodd" clip-rule="evenodd" d="M103.561 12.0537C103.579 11.4389 103.887 10.9335 104.397 10.7707C104.743 10.6808 104.978 10.7707 105.306 10.8066C105.888 10.8792 106.47 10.825 106.851 10.6439C107.47 10.3544 107.451 9.72213 106.887 9.37828C106.233 8.9987 104.943 8.89025 104.142 8.18541C103.651 7.75152 103.433 7.15521 103.469 6.55864C103.523 5.54685 104.214 4.85933 105.123 4.51657C106.16 4.11858 107.578 4.11858 109.141 4.51657L109.014 6.05329C107.887 5.6553 106.486 5.58376 105.923 6.08911C105.56 6.41446 105.577 6.82977 106.014 7.08358C106.96 7.5901 108.141 7.49888 108.995 8.4034C109.795 9.25251 109.686 10.6992 108.886 11.4941C108.341 12.0549 107.504 12.3075 106.631 12.3802C105.74 12.4528 104.704 12.3444 103.558 12.0549" fill="#8644F0"/>
<path fill-rule="evenodd" clip-rule="evenodd" d="M96.598 4.67948C97.4164 5.27596 97.5445 6.07085 97.5445 7.0295L97.5806 10.7895C97.5806 11.2591 97.7439 11.9096 98.7986 12.1992H96.6359C95.7445 12.0551 95.4711 11.567 95.4359 11.1147L95.417 8.31359C95.417 7.75284 95.4359 7.0664 95.1806 6.54264C94.8892 5.98189 94.3261 5.76508 93.7433 5.80189C92.8158 5.85611 92.2347 6.471 92.0164 7.3202C91.9261 7.71819 91.9072 8.02514 91.9072 8.44044L91.8711 12.1461H89.6895V4.24568H91.7439V5.47437C92.1255 4.91371 92.7255 4.51681 93.4158 4.2999C94.4344 3.97455 95.7255 4.02878 96.598 4.67948Z" fill="#8644F0"/>
<path fill-rule="evenodd" clip-rule="evenodd" d="M100.635 1.9695C99.4163 1.89683 98.4896 2.58439 98.4896 3.54198L98.4536 9.32551C98.4346 11.0249 99.0346 11.874 100.108 12.1809C100.799 12.3795 101.69 12.3979 102.763 12.1452L102.708 10.5185C101.454 10.8254 100.653 10.5185 100.653 9.32551V5.83675H102.617V4.28271H100.653V1.9695H100.635Z" fill="#8644F0"/>
<path fill-rule="evenodd" clip-rule="evenodd" d="M74.1261 6.68623C74.6171 7.57225 74.5811 9.12629 73.9985 9.95808C73.3625 10.8799 71.9989 11.0068 71.2167 10.1934C70.4345 9.3985 70.4171 7.77174 70.944 6.83159C71.5985 5.63862 73.4171 5.43904 74.1261 6.68623ZM70.7082 11.3148C70.6897 12.4719 70.6177 13.7549 70.6352 14.9662V15.1289C70.5992 15.2916 70.5447 15.2374 70.4531 15.3273C70.38 15.3999 70.344 15.5259 70.344 15.5985C70.3985 16.4303 70.2533 16.9184 70.2709 17.7316C70.2709 18.0571 70.0527 18.0212 70.0341 18.2013C70.0341 18.3455 69.9981 18.4539 69.9436 18.4908V17.6774C69.8891 17.659 69.9076 17.8585 69.8705 18.0212C69.852 18.1111 69.8891 18.2381 69.852 18.3281C69.816 18.455 69.816 18.635 69.7974 18.7618C69.7789 18.8346 69.7069 18.852 69.6882 18.7618V18.455C69.6337 18.4192 69.5977 18.3281 69.5792 18.1654V17.3337C69.4516 17.2436 69.4516 17.1352 69.4887 16.683C69.5432 16.1591 69.5432 15.5985 69.5617 15.0563C69.5432 14.9662 69.5072 14.9294 69.4712 14.9119C69.4352 15.3642 69.3076 15.6896 69.3076 16.2134C69.3621 16.2861 69.3981 16.3576 69.3807 16.4487C69.3621 16.5387 69.3076 16.5929 69.3261 16.7384C69.3261 16.8467 69.2716 16.9193 69.1985 16.9552C69.1625 16.7568 69.2171 16.0876 69.2345 15.8164V14.2256C69.1253 14.1897 69.18 14.424 69.1253 14.5508C69.1253 14.7493 69.144 14.8221 69.0349 14.8763C68.9442 14.0444 69.0709 13.5021 69.0162 12.0924C69.0162 12.0565 68.9977 11.9481 68.9072 11.9481C68.8712 13.0868 68.9617 14.1713 68.8167 15.2199C68.8167 15.3826 68.8352 15.5638 68.7981 15.7438C68.7796 15.8164 68.8527 16.0333 68.7251 15.9791C68.6705 15.9433 68.6345 15.8891 68.6705 15.8349C68.7065 15.7622 68.7436 15.8349 68.7251 15.6364C68.7251 15.5096 68.7611 15.438 68.6891 15.3468C68.6345 15.2742 68.6531 15.1842 68.7076 15.0574C68.7436 14.9489 68.7436 14.8045 68.6891 14.7135C68.6531 14.6593 68.7251 14.6593 68.7251 14.5324C68.7981 13.8817 68.5613 14.2428 68.616 13.5923C68.6345 13.4479 68.6345 13.3211 68.6345 13.1584C68.6531 12.3993 68.6345 11.5674 68.6531 10.791C68.6531 10.701 68.5985 10.6641 68.5625 10.7367C68.3802 11.0079 68.4349 10.3213 68.4349 10.2487C68.4349 9.03733 68.4162 7.7545 68.5254 7.57333C68.5254 6.94103 68.5069 6.29041 68.5069 5.65703C68.4162 5.5844 68.3977 5.8013 68.3977 5.85553V5.92816C68.3977 6.00079 68.2887 6.0182 68.2887 5.94656C68.2887 5.91083 68.2701 5.89243 68.2701 5.85661C68.2516 5.53125 68.2516 5.04322 68.3247 5.06163C68.3432 4.51947 68.3607 4.13989 68.5069 4.04984C68.5973 3.99562 68.7611 3.99562 68.7981 4.12247C68.8341 4.19519 68.7796 4.23092 68.8887 4.23092C68.9432 4.23092 68.9977 4.23092 69.0337 4.21252C69.0882 4.19411 69.0697 4.13989 69.1613 4.15829C69.3065 4.15829 69.1429 4.42942 69.4156 4.42942C69.6697 4.42942 69.6337 4.26674 69.6522 4.13989C69.6709 4.06716 69.8345 4.06716 69.8705 4.10407C69.9611 4.21252 69.8345 4.21252 70.0527 4.21252C70.5621 4.23092 70.6527 4.50205 70.6341 4.73637V5.40548C71.9432 3.76029 74.8341 3.68871 76.1072 5.62238C77.0705 7.06789 76.98 9.70762 75.9436 11.099C74.7981 12.6172 71.9802 12.9427 70.7072 11.3159" fill="#8644F0"/>
</g>
<defs>
<clipPath id="clip0_5543_7686">
<rect width="110" height="20" fill="white"/>
</clipPath>
</defs>
</svg>
