<svg width="150" height="38" viewBox="0 0 150 38" fill="none" xmlns="http://www.w3.org/2000/svg">
<path d="M36.9116 34.8458H25.7248L18.9355 22.7998H30.1223L36.9116 34.8458Z" fill="#AE2761"/>
<path d="M18.8848 3.1416L24.503 12.9583L12.1079 34.859H0.933594L18.8848 3.1416Z" fill="#AE2761"/>
<path d="M42.0066 11.3242L35.7031 22.8002H37.7711L39.1913 20.1908H44.6352L45.9805 22.8002H48.0858L42.0066 11.3242ZM39.9884 18.6582L41.9692 14.9849L43.8503 18.6582H39.9884Z" fill="#AE2761"/>
<path d="M52.3329 17.1636L48.8323 12.021H51.0123L53.4415 15.669L55.9952 12.021H58.2002L54.5377 17.1636L58.3871 22.8004H56.232L53.4166 18.671L50.514 22.8004H48.334L52.3329 17.1636Z" fill="#AE2761"/>
<path d="M62.0259 12.021H60.1074V22.813H62.0259V12.021Z" fill="#AE2761"/>
<path d="M71.6059 13.6048L70.0364 14.3901C69.7498 13.9595 69.4758 13.6808 69.2017 13.5541C68.9277 13.4021 68.5788 13.3261 68.1428 13.3261C67.6195 13.3261 67.1711 13.4528 66.8098 13.7188C66.4611 13.9721 66.2867 14.2761 66.2867 14.6561C66.2867 15.1881 66.7477 15.6061 67.6694 15.9355L68.9402 16.3789C69.9741 16.7209 70.7216 17.1641 71.2073 17.6709C71.6931 18.1901 71.9173 18.8109 71.9173 19.5581C71.9173 20.5461 71.5313 21.3695 70.7464 22.0155C69.9616 22.6741 68.9775 23.0035 67.8189 23.0035C66.7102 23.0035 65.8008 22.7249 65.0908 22.1675C64.3806 21.6101 63.9447 20.8249 63.7578 19.8241L65.7011 19.4569C65.7884 20.0901 65.9378 20.5209 66.162 20.7741C66.5483 21.2429 67.1337 21.4709 67.8936 21.4709C68.4916 21.4709 68.9898 21.3061 69.3886 20.9515C69.7872 20.6095 69.9866 20.1789 69.9866 19.6595C69.9866 19.4569 69.9616 19.2541 69.8744 19.0895C69.8245 18.9121 69.7125 18.7475 69.563 18.6081C69.4259 18.4689 69.2266 18.3169 68.9898 18.1901C68.7656 18.0635 68.4916 17.9495 68.1677 17.8229L66.9469 17.3921C65.1905 16.7715 64.3308 15.8595 64.3308 14.6561C64.3308 13.8455 64.692 13.1741 65.427 12.6295C66.1497 12.0721 67.0591 11.7935 68.1553 11.7935C69.6253 11.7935 70.7838 12.4015 71.6059 13.6048Z" fill="#AE2761"/>
<path d="M109.824 11.3242L103.533 22.8002H105.601L107.021 20.1908H112.465L113.786 22.8002H115.891L109.824 11.3242ZM107.819 18.6582L109.799 14.9849L111.693 18.6582H107.819Z" fill="#AE2761"/>
<path d="M90.9512 22.8006V11.2739L100.219 19.5199V12.0213H102.138V23.4593L92.8696 15.2386V22.8006H90.9512Z" fill="#AE2761"/>
<path d="M116.975 22.8006V11.2739L126.255 19.5199V12.0213H128.174V23.4593L118.893 15.2386V22.8006H116.975Z" fill="#AE2761"/>
<path d="M88.2602 12.021H86.3418V22.813H88.2602V12.021Z" fill="#AE2761"/>
<path d="M149.064 13.6294V11.9194H144.305H142.387V13.6294V15.846V17.556V20.9V22.7494H144.305H149.064V20.9H144.305V17.556H149.064V15.846H144.305V13.6294H149.064Z" fill="#AE2761"/>
<path d="M79.9634 13.6294V15.8461H84.7221V17.5561H79.9634V22.8H78.0449V11.9194H84.7221V13.6294H79.9634Z" fill="#AE2761"/>
<path d="M133.444 14.1749C134.278 13.3769 135.374 12.9842 136.72 12.9842C137.741 12.9842 138.688 13.1996 139.535 13.6176L139.834 13.7696V11.9202L139.697 11.8696C138.912 11.5656 137.916 11.4136 136.732 11.4136C134.876 11.4136 133.319 11.9709 132.111 13.0729C130.89 14.1876 130.279 15.657 130.279 17.443C130.279 19.115 130.827 20.483 131.911 21.5216C132.995 22.5476 134.453 23.067 136.234 23.067C137.604 23.067 138.775 22.8516 139.71 22.4082L139.834 22.3576V20.635L139.535 20.7996C138.663 21.2682 137.629 21.509 136.433 21.509C135.163 21.509 134.129 21.129 133.356 20.3816C132.584 19.6342 132.198 18.621 132.198 17.367C132.198 16.037 132.621 14.9602 133.444 14.1749Z" fill="#AE2761"/>
</svg>
