<svg width="120" height="31" viewBox="0 0 120 31" fill="none" xmlns="http://www.w3.org/2000/svg">
<path d="M117.897 25.8175H117.737C117.126 25.8175 116.693 25.9299 116.404 26.1546C116.131 26.3794 115.986 26.7166 115.986 27.1983C115.986 27.4391 116.035 27.6318 116.147 27.7602C116.243 27.9047 116.388 27.9689 116.58 27.9689C116.918 27.9689 117.191 27.7923 117.415 27.4391C117.624 27.0538 117.785 26.5239 117.897 25.8175ZM117.447 28.3703C117.223 28.6272 116.982 28.8038 116.725 28.9323C116.468 29.0607 116.179 29.1089 115.858 29.1089C115.36 29.1089 114.943 28.9483 114.622 28.6433C114.301 28.3382 114.156 27.9368 114.156 27.4551C114.156 26.5079 114.413 25.8175 114.927 25.4C115.441 24.9826 116.291 24.7738 117.464 24.7738C117.64 24.7738 117.769 24.7738 117.865 24.7738C117.961 24.7738 118.042 24.7738 118.122 24.7899C118.154 24.5812 118.186 24.4206 118.202 24.2922C118.218 24.1637 118.218 24.0674 118.218 24.0032C118.218 23.7784 118.17 23.6018 118.058 23.4894C117.945 23.377 117.785 23.3288 117.576 23.3288C117.351 23.3288 117.175 23.3931 117.03 23.5376C116.902 23.6821 116.805 23.8908 116.757 24.1637H114.943C115.023 23.5054 115.264 23.0238 115.681 22.7187C116.099 22.4137 116.709 22.2692 117.528 22.2692C118.379 22.2692 119.005 22.4137 119.406 22.6866C119.808 22.9756 120 23.4252 120 24.0353C120 24.1958 119.984 24.3564 119.968 24.5491C119.936 24.7417 119.904 24.9344 119.856 25.1431L119.31 27.6799C119.262 27.9047 119.23 28.1295 119.198 28.3543C119.165 28.579 119.149 28.7878 119.117 29.0286H117.351L117.447 28.3703ZM111.298 28.4185C111.122 28.6754 110.913 28.8841 110.672 28.9965C110.431 29.1249 110.142 29.1731 109.789 29.1731C109.227 29.1731 108.81 29.0286 108.537 28.7557C108.264 28.4827 108.119 28.0492 108.119 27.4712C108.119 27.2464 108.151 26.9574 108.199 26.6042C108.248 26.251 108.312 25.8656 108.408 25.4482C108.504 24.9986 108.617 24.6133 108.729 24.2761C108.842 23.9389 108.954 23.666 109.082 23.4573C109.307 23.0719 109.564 22.7829 109.853 22.6063C110.142 22.4297 110.495 22.3334 110.897 22.3334C111.234 22.3334 111.523 22.3976 111.764 22.526C112.005 22.6545 112.229 22.8793 112.422 23.1843L113.209 19.5557H115.071L113.273 27.9689C113.241 28.0974 113.225 28.2579 113.193 28.4345C113.161 28.6112 113.145 28.8038 113.112 29.0125H111.202L111.298 28.4185ZM111.443 23.5697C111.234 23.5697 111.073 23.6339 110.945 23.7463C110.817 23.8587 110.704 24.0835 110.608 24.3885C110.447 24.9183 110.303 25.4321 110.206 25.962C110.11 26.4757 110.062 26.8932 110.062 27.2143C110.062 27.4551 110.11 27.6318 110.222 27.7602C110.319 27.8886 110.479 27.9368 110.688 27.9368C110.865 27.9368 111.009 27.8726 111.138 27.7602C111.266 27.6478 111.395 27.4551 111.507 27.2143C111.571 27.0698 111.619 26.8771 111.684 26.6363C111.748 26.3955 111.812 26.1065 111.876 25.7693C111.94 25.4321 111.989 25.1431 112.021 24.9023C112.053 24.6615 112.069 24.4688 112.069 24.3243C112.069 24.0674 112.005 23.8908 111.908 23.7623C111.796 23.6339 111.635 23.5697 111.443 23.5697ZM105.325 23.4252C105.117 23.4252 104.956 23.4894 104.828 23.6018C104.699 23.7142 104.587 23.9068 104.491 24.1637C104.458 24.244 104.426 24.3564 104.378 24.533C104.33 24.7096 104.298 24.8862 104.25 25.111C104.218 25.2395 104.186 25.4161 104.137 25.6569C103.945 26.54 103.848 27.0859 103.848 27.2785C103.848 27.5354 103.897 27.7441 104.009 27.8726C104.121 28.001 104.282 28.0813 104.507 28.0813C104.715 28.0813 104.876 28.0171 105.02 27.9047C105.165 27.7923 105.277 27.5996 105.374 27.3428C105.422 27.1983 105.486 26.9895 105.55 26.7005C105.614 26.4115 105.695 26.0904 105.775 25.7372C105.839 25.4 105.903 25.111 105.936 24.8541C105.968 24.5972 105.984 24.3885 105.984 24.228C105.984 23.9711 105.936 23.7784 105.823 23.6499C105.711 23.4894 105.55 23.4252 105.325 23.4252ZM102.034 27.0056C102.034 26.7969 102.05 26.556 102.098 26.2831C102.13 26.0101 102.195 25.689 102.275 25.3518C102.371 24.9344 102.468 24.5651 102.58 24.244C102.692 23.9229 102.821 23.666 102.933 23.4894C103.206 23.0719 103.527 22.7669 103.913 22.5742C104.298 22.3815 104.78 22.2852 105.374 22.2852C106.176 22.2852 106.787 22.4779 107.204 22.8472C107.621 23.2164 107.83 23.7784 107.83 24.4848C107.83 24.7096 107.814 24.9505 107.782 25.2073C107.75 25.4803 107.702 25.7693 107.621 26.0904C107.525 26.5079 107.429 26.8611 107.316 27.1822C107.204 27.5033 107.076 27.7763 106.947 27.9689C106.69 28.3864 106.353 28.6914 105.984 28.8841C105.598 29.0768 105.117 29.1731 104.523 29.1731C103.72 29.1731 103.11 28.9804 102.692 28.6111C102.243 28.2579 102.034 27.712 102.034 27.0056ZM97.6509 29.0447L98.7426 23.8908C98.7908 23.6499 98.839 23.3931 98.8871 23.1522C98.9353 22.9114 98.9674 22.6705 98.9835 22.4297H100.798L100.637 23.3931C100.862 23.0559 101.103 22.799 101.392 22.6384C101.681 22.4779 102.002 22.3976 102.387 22.3976C102.468 22.3976 102.516 22.3976 102.564 22.3976C102.596 22.3976 102.644 22.3976 102.66 22.4137L102.323 24.0513C102.307 24.0513 102.307 24.0513 102.291 24.0513C102.066 24.0192 101.922 24.0032 101.825 24.0032C101.392 24.0032 101.039 24.1316 100.814 24.3885C100.573 24.6454 100.38 25.0789 100.252 25.689L99.5454 29.0447H97.6509ZM95.6439 25.8175H95.4833C94.8732 25.8175 94.4397 25.9299 94.1507 26.1546C93.8778 26.3794 93.7333 26.7166 93.7333 27.1983C93.7333 27.4391 93.7814 27.6318 93.8938 27.7602C93.9902 27.9047 94.1347 27.9689 94.3273 27.9689C94.6645 27.9689 94.9374 27.7923 95.1622 27.4391C95.3549 27.0538 95.5315 26.5239 95.6439 25.8175ZM95.1783 28.3703C94.9535 28.6272 94.7127 28.8038 94.4558 28.9323C94.1989 29.0607 93.9099 29.1089 93.5888 29.1089C93.091 29.1089 92.6736 28.9483 92.3525 28.6433C92.0314 28.3382 91.8869 27.9368 91.8869 27.4551C91.8869 26.5079 92.1438 25.8175 92.6575 25.4C93.1713 24.9826 94.0223 24.7738 95.1943 24.7738C95.3709 24.7738 95.4994 24.7738 95.5957 24.7738C95.6921 24.7738 95.7723 24.7738 95.8526 24.7899C95.8847 24.5812 95.9168 24.4206 95.9329 24.2922C95.9489 24.1637 95.949 24.0674 95.949 24.0032C95.949 23.7784 95.9008 23.6018 95.7884 23.4894C95.676 23.377 95.5154 23.3288 95.3067 23.3288C95.0819 23.3288 94.9053 23.3931 94.7608 23.5376C94.6324 23.6821 94.536 23.8908 94.4879 24.1637H92.6736C92.7539 23.5054 92.9947 23.0238 93.4121 22.7187C93.8296 22.4137 94.4397 22.2692 95.2586 22.2692C96.1095 22.2692 96.7357 22.4137 97.1371 22.6866C97.5385 22.9756 97.7311 23.4252 97.7311 24.0353C97.7311 24.1958 97.7151 24.3564 97.699 24.5491C97.6669 24.7417 97.6348 24.9344 97.5866 25.1431L97.0407 27.6799C96.9926 27.9047 96.9605 28.1295 96.9283 28.3543C96.8962 28.579 96.8802 28.7878 96.8481 29.0286H95.098L95.1783 28.3703ZM84.6297 29.0447L86.6527 19.5718H89.318C90.3776 19.5718 91.1322 19.7324 91.5979 20.0535C92.0635 20.3746 92.2883 20.8884 92.2883 21.6109C92.2883 22.3494 92.0956 22.9435 91.7263 23.3931C91.357 23.8426 90.8272 24.1156 90.1207 24.1958C90.6024 24.2922 90.9556 24.5009 91.1804 24.806C91.4052 25.111 91.5336 25.5285 91.5336 26.0422C91.5336 26.556 91.4373 27.0377 91.2446 27.4712C91.052 27.9047 90.7951 28.2258 90.4579 28.4666C90.1529 28.6754 89.7836 28.8199 89.334 28.9162C88.9005 28.9965 88.178 29.0447 87.1825 29.0447H84.6297ZM86.9257 27.5675H87.7927C88.4188 27.5675 88.8684 27.4391 89.1574 27.1661C89.4464 26.9092 89.5909 26.4918 89.5909 25.9138C89.5909 25.5285 89.4785 25.2555 89.2698 25.095C89.0611 24.9344 88.6918 24.8541 88.178 24.8541H87.5358L86.9257 27.5675ZM87.8087 23.4091H88.4991C89.1574 23.4091 89.6391 23.2967 89.9281 23.0559C90.2171 22.8151 90.3616 22.4458 90.3616 21.9159C90.3616 21.5788 90.2492 21.354 90.0405 21.2095C89.8317 21.065 89.4625 20.9847 88.9647 20.9847H88.3546L87.8087 23.4091ZM79.1868 29.0447L80.3268 23.6018H79.2992L79.5561 22.4458H80.5997L80.7924 21.4664C80.9369 20.7599 81.1777 20.2461 81.5309 19.925C81.8842 19.6039 82.3658 19.4434 82.976 19.4434C83.1686 19.4434 83.3613 19.4434 83.554 19.4594C83.7466 19.4755 83.9393 19.4915 84.132 19.5236L83.8751 20.792C83.7787 20.776 83.6824 20.7599 83.6182 20.7439C83.554 20.7278 83.4897 20.7278 83.4416 20.7278C83.2168 20.7278 83.0402 20.792 82.9278 20.9044C82.7994 21.0168 82.7191 21.2095 82.6548 21.4664L82.4622 22.4458H83.5379L83.2971 23.6018H82.1892L81.0332 29.0447H79.1868ZM76.6661 23.4252C76.4734 23.4252 76.2968 23.4894 76.1684 23.6018C76.0399 23.7142 75.9275 23.9068 75.8472 24.1637C75.8151 24.244 75.783 24.3564 75.7348 24.533C75.6867 24.7096 75.6546 24.8862 75.6064 25.111C75.5743 25.2395 75.5422 25.4161 75.494 25.6569C75.3013 26.54 75.205 27.0859 75.205 27.2785C75.205 27.5354 75.2532 27.7441 75.3656 27.8726C75.478 28.001 75.6385 28.0813 75.8472 28.0813C76.0399 28.0813 76.2165 28.0171 76.345 27.9047C76.4734 27.7923 76.6019 27.5996 76.6821 27.3428C76.7303 27.1983 76.7945 26.9895 76.8587 26.7005C76.923 26.4115 77.0033 26.0904 77.0675 25.7372C77.1317 25.4 77.1799 25.111 77.228 24.8541C77.2762 24.5972 77.2762 24.3885 77.2762 24.228C77.2762 23.9711 77.228 23.7784 77.1156 23.6499C77.0514 23.4894 76.8909 23.4252 76.6661 23.4252ZM73.4389 27.0056C73.4389 26.7969 73.4549 26.556 73.5031 26.2831C73.5352 26.0101 73.5994 25.689 73.6637 25.3518C73.76 24.9344 73.8563 24.5651 73.9687 24.244C74.0811 23.9229 74.1935 23.666 74.322 23.4894C74.5788 23.0719 74.9 22.7669 75.2853 22.5742C75.6546 22.3815 76.1362 22.2852 76.7142 22.2852C77.501 22.2852 78.095 22.4779 78.5125 22.8472C78.9299 23.2164 79.1226 23.7784 79.1226 24.4848C79.1226 24.7096 79.1065 24.9505 79.0744 25.2073C79.0423 25.4803 78.9942 25.7693 78.9139 26.0904C78.8175 26.5079 78.7212 26.8611 78.6088 27.1822C78.4964 27.5033 78.384 27.7763 78.2556 27.9689C77.9987 28.3864 77.6776 28.6914 77.2923 28.8841C76.923 29.0768 76.4413 29.1731 75.8633 29.1731C75.0766 29.1731 74.4665 28.9804 74.0651 28.6111C73.6476 28.2579 73.4389 27.712 73.4389 27.0056ZM65.122 29.0447L67.1772 19.5718H69.0878L67.9318 24.8702L70.0351 22.4297H72.0742L69.6016 25.3518L70.9342 29.0286H68.9754L67.8194 25.2876L67.0166 29.0286H65.122V29.0447ZM58.9727 29.0447L60.1448 23.6499C60.209 23.377 60.2572 23.1362 60.2893 22.9596C60.3214 22.7669 60.3535 22.6063 60.3696 22.4458H62.1839L62.0715 23.2004C62.2802 22.8793 62.521 22.6545 62.794 22.51C63.0669 22.3655 63.4041 22.3013 63.7894 22.3013C64.2872 22.3013 64.6564 22.4137 64.9133 22.6545C65.1702 22.8793 65.2987 23.2325 65.2987 23.6821C65.2987 23.8426 65.2826 24.0032 65.2666 24.1477C65.2505 24.2922 65.2344 24.4367 65.2023 24.5651L64.239 29.0607H62.3284L63.3078 24.5491C63.3399 24.4206 63.3559 24.3082 63.372 24.244C63.388 24.1798 63.388 24.1156 63.388 24.0834C63.388 23.9068 63.3399 23.7784 63.2596 23.6981C63.1793 23.6178 63.0509 23.5697 62.8903 23.5697C62.6495 23.5697 62.4247 23.6981 62.232 23.9389C62.0394 24.1798 61.8949 24.517 61.8146 24.9505L60.9155 29.0607H58.9727V29.0447ZM56.9337 25.8175H56.757C56.1469 25.8175 55.6974 25.9299 55.4084 26.1546C55.1194 26.3794 54.9909 26.7166 54.9909 27.1983C54.9909 27.4391 55.0391 27.6318 55.1515 27.7602C55.2478 27.9047 55.4084 27.9689 55.585 27.9689C55.9221 27.9689 56.2112 27.7923 56.4359 27.4391C56.6607 27.0538 56.8213 26.5239 56.9337 25.8175ZM56.4841 28.3703C56.2593 28.6272 56.0185 28.8038 55.7455 28.9323C55.4886 29.0607 55.1836 29.1089 54.8785 29.1089C54.3647 29.1089 53.9473 28.9483 53.6262 28.6433C53.3051 28.3382 53.1445 27.9368 53.1445 27.4551C53.1445 26.5079 53.4014 25.8175 53.9152 25.4C54.429 24.9826 55.296 24.7738 56.4841 24.7738C56.6607 24.7738 56.7892 24.7738 56.8855 24.7738C56.9818 24.7738 57.0621 24.7738 57.1584 24.7899C57.2066 24.5812 57.2227 24.4206 57.2387 24.2922C57.2548 24.1637 57.2548 24.0674 57.2548 24.0032C57.2548 23.7784 57.2066 23.6018 57.0942 23.4894C56.9818 23.377 56.8213 23.3288 56.5965 23.3288C56.3717 23.3288 56.1951 23.3931 56.0506 23.5376C55.9061 23.6821 55.8258 23.8908 55.7776 24.1637H53.9312C54.0115 23.5054 54.2684 23.0238 54.6859 22.7187C55.1033 22.4137 55.7295 22.2692 56.5644 22.2692C57.4314 22.2692 58.0576 22.4137 58.4589 22.6866C58.8603 22.9756 59.053 23.4252 59.053 24.0353C59.053 24.1958 59.0369 24.3564 59.0209 24.5491C58.9888 24.7417 58.9567 24.9344 58.9085 25.1431L58.3626 27.6799C58.3144 27.9047 58.2823 28.1295 58.2502 28.3543C58.2181 28.579 58.186 28.7878 58.1699 29.0286H56.3878L56.4841 28.3703ZM45.791 29.0447L47.8461 19.5718H50.5435C51.6192 19.5718 52.3899 19.7324 52.8555 20.0535C53.3211 20.3746 53.562 20.8884 53.562 21.6109C53.562 22.3494 53.3693 22.9435 53 23.3931C52.6307 23.8426 52.0848 24.1156 51.3784 24.1958C51.8601 24.2922 52.2293 24.5009 52.4541 24.806C52.695 25.111 52.8073 25.5285 52.8073 26.0422C52.8073 26.556 52.711 27.0377 52.5183 27.4712C52.3257 27.9047 52.0527 28.2258 51.7156 28.4666C51.4105 28.6754 51.0412 28.8199 50.5917 28.9162C50.1421 28.9965 49.4196 29.0447 48.4081 29.0447H45.791ZM48.1191 27.5675H48.9861C49.6123 27.5675 50.0779 27.4391 50.3669 27.1661C50.6559 26.9092 50.8004 26.4918 50.8004 25.9138C50.8004 25.5285 50.688 25.2555 50.4793 25.095C50.2545 24.9344 49.9013 24.8541 49.3714 24.8541H48.7131L48.1191 27.5675ZM49.0182 23.4091H49.7086C50.3669 23.4091 50.8486 23.2967 51.1536 23.0559C51.4426 22.8151 51.5871 22.4458 51.5871 21.9159C51.5871 21.5788 51.4747 21.354 51.266 21.2095C51.0412 21.065 50.688 20.9847 50.1742 20.9847H49.5641L49.0182 23.4091Z" fill="#F94F00"/>
<path fill-rule="evenodd" clip-rule="evenodd" d="M97.3136 14.5787H98.8389L98.566 15.9435H97.0407L97.3136 14.5787ZM93.0428 11.3997C92.7859 11.769 92.4166 12.0259 92.0795 12.0259H91.9831C91.4854 12.0259 91.2285 11.4961 91.4051 10.8538L91.7102 9.76204L93.0267 11.4318L93.0428 11.3997ZM92.9304 8.52576H93.0107C93.5084 8.52576 93.7653 9.05559 93.6048 9.69782L93.3639 10.5809L92.0313 9.05559C92.2882 8.73448 92.6093 8.52576 92.9304 8.52576ZM90.506 5.89263H102.5L101.151 4.11044L102.291 3.17922L103.88 5.89263H104.298L103.094 2.64938L104.603 1.95898L105.47 5.90868H116.661L116.484 6.67935H115.489L113.562 13.9365H111.94L113.867 6.67935H112.454L111.812 8.52576C111.121 8.52576 110.142 8.3652 109.484 8.49364C108.922 8.60603 108.809 8.87898 108.633 9.3446C108.264 10.34 108.071 11.3355 107.814 12.3791C107.878 13.0535 108.248 13.1819 108.938 13.1658C108.874 12.4915 109.034 11.5603 109.837 11.1749C110.367 10.9181 111.298 10.902 111.491 11.5282C111.764 12.4273 110.832 13.3103 110.174 13.3746C110.351 13.9205 110.752 13.9686 111.346 14.2095L109.644 15.1407C109.259 14.6751 108.97 14.1934 108.954 13.6957C108.344 13.9847 107.3 14.0168 106.658 13.6957C106.514 13.6315 106.369 13.5191 106.241 13.3264C105.968 12.9411 105.871 12.4433 105.919 11.8493C105.984 11.2552 106.064 10.6612 106.257 10.0832C106.465 9.39276 106.706 8.87898 107.252 8.39731C108.103 7.62664 109.002 7.69086 110.351 7.75508L110.672 6.67935H105.903L103.977 13.9365H102.355L104.282 6.67935H102.965L102.227 9.16798L100.637 9.21615L100.525 8.62209C100.22 8.49364 99.7059 8.42942 99.3687 8.49364C98.9192 8.57392 98.8228 8.84687 98.6944 9.24826C98.566 9.64965 98.5338 10.0832 98.8389 10.1955C99.3366 10.3882 100.204 10.2919 100.717 10.2598C101.392 10.2437 101.793 10.5006 101.761 11.1428C101.697 11.8011 101.488 12.3952 101.199 12.9411C101.022 13.3103 100.814 13.5833 100.525 13.6957C99.8344 13.9847 98.582 13.8884 97.8434 13.8884C97.4421 13.8884 97.0567 13.8723 96.6874 13.8402C96.5269 13.8241 96.3824 13.776 96.2379 13.6796C96.1094 13.5993 95.997 13.4709 95.9007 13.3103C95.708 12.9571 95.7402 12.7484 95.8204 12.3791L95.9649 11.7369L97.9077 11.769C97.6989 12.2507 97.6347 12.6039 97.7632 12.7966C98.0361 13.198 99.0155 13.0053 99.3366 12.7966L99.722 11.5442C99.8022 11.2552 99.6256 11.1268 99.3687 11.0626C99.0155 10.9823 98.6141 11.0144 98.2609 11.0144C97.8756 11.0144 97.3457 11.0786 97.0086 10.8538C96.4466 10.4845 96.5911 9.52121 96.7998 8.89504C96.9764 8.3652 97.2012 8.06014 97.715 7.83536C98.8068 7.33764 100.525 7.46608 100.878 8.10831L101.215 6.61513H96.1094L94.247 13.9205H92.6254L93.0589 12.2186C92.6093 12.6842 91.9671 12.9732 91.3248 12.9732H91.1482C90.1046 12.9732 89.4303 12.1543 89.6711 11.1589L90.0886 9.39276C90.3294 8.39731 91.373 7.57847 92.4166 7.57847H92.5932C93.2676 7.57847 93.7974 7.91564 94.0061 8.42942L94.4718 6.61513H90.3454L90.506 5.89263ZM72.7324 3.27555L74.354 3.25949C74.2737 3.45216 74.1934 3.90172 74.3219 4.07833C74.5627 4.39945 75.4137 4.38339 75.7187 4.03017C75.8472 3.88567 75.9756 3.48427 76.0238 3.29161L77.806 3.27555C77.6454 4.06228 77.3564 4.72056 76.6178 4.89717C75.7508 5.1059 74.0811 5.02562 73.198 4.86506C72.331 4.7045 72.5879 3.99805 72.7324 3.27555ZM76.9871 13.2943H78.5124L78.2395 14.6751H76.7142L76.9871 13.2943ZM81.4506 6.6633H80.0538L79.1546 10.2277C78.7854 11.5442 79.556 11.5924 80.3267 10.8859L81.4506 6.6633ZM71.3676 5.89263H86.5563L86.3797 6.6633H83.2007L82.7511 8.39731C84.1961 7.54636 85.2237 7.77114 85.5609 8.42942C85.8017 8.87898 85.6251 9.29643 85.5127 9.74599L84.5975 13.1498H82.8635L83.6984 9.87443C84.0677 8.57392 83.3131 8.5097 82.5424 9.20009L81.3543 13.8884L79.5079 13.9526L80.1019 11.7048C78.6569 12.5718 77.6294 12.331 77.2761 11.6887C77.0353 11.2392 77.2119 10.8217 77.3243 10.3722L78.3037 6.67935H76.9229L74.9962 13.9365H73.3746L75.3013 6.67935H73.8723L71.9456 13.9365H70.324L71.3195 10.1795H69.8745L70.1314 9.16798H71.5764L72.2347 6.6633H71.1429L71.3676 5.89263ZM68.59 9.68176C69.5373 9.76204 70.0511 10.613 69.7139 11.6406L69.6176 11.9135C69.2804 12.9892 68.1405 13.8884 67.0808 13.8884H63.7251L63.982 12.909H66.3262C66.9684 12.909 67.6267 12.347 67.7872 11.6406L67.8193 11.4639C67.9799 10.7736 67.5785 10.1955 66.9363 10.1955H65.0417L65.1702 9.66571L68.59 9.68176ZM68.574 9.68176C68.5418 9.68176 68.5097 9.68176 68.4937 9.68176C68.5258 9.68176 68.5579 9.68176 68.574 9.68176ZM68.6221 9.68176C69.5694 9.56937 70.4043 8.78265 70.5006 7.83536L70.5327 7.57847C70.6451 6.55091 69.8745 5.71601 68.8308 5.71601H65.8445L65.6037 6.67935H67.6588C68.301 6.67935 68.7185 7.20919 68.59 7.85142L68.5579 8.01197C68.4295 8.6542 67.8033 9.18404 67.1611 9.18404H65.3147L65.2023 9.66571L68.6221 9.68176ZM55.2799 8.63815C55.617 8.71842 55.8258 9.00743 55.7455 9.28037L55.0551 11.6566C54.9748 11.9296 54.6376 12.0741 54.3005 11.9938C53.9633 11.9135 53.7546 11.6245 53.8348 11.3516L54.5252 8.97531C54.6055 8.70237 54.9427 8.55787 55.2799 8.63815ZM52.6628 3.85355H54.1881L53.9151 5.23434H52.3898L52.6628 3.85355ZM48.7773 11.3997C48.5204 11.769 48.1511 12.0259 47.814 12.0259H47.7337C47.236 12.0259 46.9791 11.4961 47.1557 10.8538L47.4607 9.76204L48.7773 11.4318V11.3997ZM48.6649 8.52576H48.7452C49.2429 8.52576 49.4998 9.05559 49.3393 9.69782L49.0984 10.5809L47.7658 9.05559C48.0227 8.73448 48.3438 8.52576 48.6649 8.52576ZM46.2405 5.89263H49.0021L47.6534 4.11044L48.7934 3.17922L50.3829 5.89263H50.8003L49.5961 2.64938L51.1054 1.95898L51.9724 5.90868H61.7021L61.5255 6.67935H58.1217L57.7364 8.25281C59.2617 7.25736 60.9475 7.51425 60.787 9.3446C60.7227 10.035 60.4819 10.902 60.1929 11.5282C59.9521 12.058 59.6309 12.4433 59.2296 12.7002C58.5873 13.1016 58.0735 12.9892 57.4313 12.8608C57.2226 12.8287 57.2065 12.8608 57.2868 12.6521L57.3832 12.3791C57.4153 12.2667 57.4153 12.2828 57.5277 12.2828C57.6882 12.2828 57.8488 12.2667 57.9933 12.2025C58.2341 12.0901 58.4107 11.6566 58.5392 11.1749C58.6676 10.7093 59.1011 9.20009 58.8442 8.75053C58.7318 8.55787 58.3947 8.52576 58.1057 8.70237C57.8488 8.86293 57.6561 9.07165 57.5116 9.28037L56.3716 13.9686H54.734L55.1514 12.2667C54.7179 12.7323 54.1881 13.0213 53.594 13.0213H53.4174C52.4219 13.0213 51.7797 12.2025 52.0045 11.2071L52.4059 9.44093C52.6307 8.44548 53.6422 7.62664 54.6376 7.62664H54.8142C55.4725 7.62664 55.8579 7.94775 56.0666 8.46153L56.5483 6.6633H51.86L49.9975 13.9686H48.3117L48.7452 12.2667C48.2956 12.7323 47.6534 13.0213 47.0112 13.0213H46.8346C45.791 13.0213 45.1166 12.2025 45.3575 11.2071L45.7749 9.44093C46.0157 8.44548 47.0594 7.62664 48.103 7.62664H48.2796C48.9539 7.62664 49.4838 7.96381 49.6925 8.47759L50.1581 6.6633H46.0478L46.2405 5.89263Z" fill="#F94F00"/>
<path fill-rule="evenodd" clip-rule="evenodd" d="M28.0172 5.26626C27.8405 6.24566 27.8405 6.24566 27.7121 6.87183C27.391 7.75489 26.9735 8.46134 26.4437 9.23201C26.4116 9.24807 26.3955 9.26413 26.3634 9.28018C24.8863 10.966 23.1202 12.0096 21.0008 12.7482C20.5834 12.8445 20.5834 12.8445 20.5352 12.8767V12.973C20.6797 13.1175 20.9527 13.0854 21.1293 13.0854C21.2898 13.1335 21.2898 13.1335 21.5467 13.1496C22.3174 13.3904 23.056 13.6794 23.7624 14.0969C23.8106 14.1611 24.1477 14.4019 24.6936 14.8836C24.8542 15.0763 25.0147 15.2689 25.1753 15.4616C25.5125 15.9433 25.7533 16.5052 25.962 17.0672C26.0263 17.3562 26.0905 17.6452 26.1547 17.9342C26.1868 18.2553 26.1868 18.2553 26.1868 19.0902C26.1226 19.4916 26.0423 19.893 25.9781 20.2944C25.8657 20.5352 25.8336 20.7118 25.6409 21.1935C25.2235 22.0284 24.7579 22.7991 24.1477 23.5055C23.4092 24.2762 22.6064 24.9505 21.7554 25.5927C21.6109 25.657 21.3862 25.7373 21.2898 25.8657C19.9733 26.6043 18.6728 27.102 17.2438 27.5997C16.3607 27.7763 15.4937 27.9529 14.5946 28.0653C12.9569 28.1617 12.9569 28.1617 12.4913 28.2098C11.0463 28.258 5.47499 28.5309 5.37865 28.5149C5.29837 28.4346 5.31443 28.2259 5.37865 28.1456C6.87183 27.7121 8.39712 27.2144 9.90635 26.8451C10.0348 26.7969 12.5716 26.0584 12.8285 25.962C13.9684 25.7212 15.0923 25.2877 16.2162 24.9826C16.4731 24.8863 17.8218 24.517 19.0741 24.1477C20.182 23.8908 21.354 23.5376 22.4298 23.1683C22.4779 23.1041 22.4779 23.0399 22.4779 22.9596C22.4458 22.9436 22.4137 22.9115 22.3977 22.8954C22.3013 22.8954 20.8563 23.2647 14.1129 24.9024C14.0808 24.9184 14.0487 24.9345 14.0327 24.9505C12.7964 25.1914 11.5601 25.5446 10.3238 25.8336C10.2275 25.8657 10.1311 25.8978 10.0509 25.9299C5.37865 27.0378 5.37865 27.0378 5.26626 27.0859H5.13782C5.04148 26.9575 4.97726 26.9414 5.00937 26.7648C5.3626 26.54 5.36259 26.54 6.2296 26.0423C6.45438 25.946 8.58978 24.7257 8.79851 24.6294C10.5004 23.6179 12.2665 22.6706 13.9684 21.6752C15.3974 20.8884 16.8424 20.0696 18.2714 19.2829C18.3195 19.2508 18.3677 19.2186 18.4159 19.1705C19.5076 18.6085 20.5673 17.9824 21.643 17.3883C22.1408 17.1796 22.6706 16.8585 23.1202 16.5534C23.2005 16.441 23.1362 16.2965 23.0078 16.2805C21.9642 16.8103 20.9366 17.3562 19.909 17.886C19.7485 17.9342 19.7485 17.9342 19.5879 18.0466C16.6337 19.5558 16.6337 19.5558 16.3928 19.6521C16.0557 19.8609 15.1726 20.2944 15.0923 20.3586C13.8079 21.0008 12.5234 21.6752 11.255 22.3656C11.2069 22.3816 11.1747 22.3816 11.1426 22.3977C10.4522 22.8633 9.61735 23.1683 8.9109 23.6018C7.67461 24.212 6.42227 24.8542 5.20204 25.4964C5.05754 25.5285 4.12631 26.1868 4.22264 25.5446C4.65614 25.1432 5.08965 24.7257 5.52315 24.3243C5.6516 24.1798 5.98877 23.8748 6.03693 23.8587C6.50255 23.345 7.03239 22.7509 7.61039 22.3656C7.6425 22.3174 7.69067 22.2692 7.72278 22.205C8.84668 21.1614 9.98663 20.1017 11.0624 18.9939C14.2896 15.9112 17.5328 12.8285 20.776 9.79396C20.8724 9.66552 20.9687 9.53707 21.1132 9.45679C23.0881 7.56222 23.2165 7.41772 25.5606 5.18598C25.7212 5.07359 25.7212 5.07359 25.7694 4.97726C25.7694 4.59192 25.5446 4.76854 25.3359 4.92909C24.7579 5.5071 24.1317 6.02088 23.5376 6.58283C23.3128 6.90394 22.9114 7.12872 22.6546 7.43378C22.0926 7.94756 21.4343 8.63795 20.7921 9.08751C20.3265 9.55313 19.7966 10.0348 19.2829 10.4362C17.4365 12.2184 15.3974 13.8239 13.567 15.6222C12.6679 16.3286 11.8812 17.2438 10.966 17.9342C10.7252 18.2071 10.7252 18.2071 9.08751 19.7164C9.02329 19.7645 8.97512 19.7966 8.9109 19.8288C7.08055 21.5146 5.21809 23.1683 3.35564 24.8221C3.14691 24.8221 3.09874 24.7739 3.1148 24.5652C5.34654 21.3219 7.57828 18.0626 9.77791 14.8033C10.677 13.4547 11.5601 12.0739 12.5074 10.7573C13.1817 9.76185 13.2299 9.66552 13.4707 9.3444C15.1887 6.79155 16.9869 4.22264 18.6728 1.63768C18.8815 1.42896 18.8173 1.30051 18.5443 1.33262C17.1153 3.33958 15.6382 5.31443 14.2253 7.3535C13.9845 7.65856 13.5349 8.3329 8.75034 15.0281C8.63795 15.2047 6.92 17.5489 6.80761 17.6934C5.26626 19.8448 3.72492 22.0284 2.15146 24.1477C2.07118 24.212 1.9909 24.2762 1.87851 24.212V24.0193C3.00241 21.0972 4.19053 18.159 5.41076 15.285C7.19294 10.8055 8.97512 6.29382 10.7894 1.81429C10.7894 1.71796 10.7894 1.71796 10.7252 1.63768C10.661 1.63768 10.5967 1.65373 10.5486 1.7019C9.16779 4.80065 7.73884 7.89939 6.34199 10.9981C6.27777 11.0784 4.8167 14.3377 4.39925 15.1726C4.22264 15.6061 4.07814 15.8791 3.88547 16.3286C2.69735 18.8333 1.5574 21.3862 0.417446 23.923C0.272945 23.9872 0.144501 24.0032 0 23.939C0.0160557 23.7624 0.0160542 23.7624 0.578003 21.6912C0.62617 21.5788 0.786728 20.9527 0.834895 20.8242C0.883062 20.5994 0.931229 20.487 1.47712 18.3356C1.76612 17.2599 2.05513 16.1841 2.36018 15.1244C2.40835 14.8997 5.13782 5.02543 5.16993 4.88093C5.26626 4.55981 5.34654 4.25475 5.44287 3.93364C5.7961 2.55285 6.16538 1.2684 6.43832 0.160557C6.47044 0.0802784 6.50255 0.0642225 6.56677 0.0160554C11.4477 0.0160554 16.3447 0.0321114 21.2417 0C22.7348 0.0802784 24.2601 0.337169 25.6409 0.979396C25.7854 1.09179 25.7854 1.09179 26.1386 1.28445C26.4437 1.50923 26.7648 1.76612 27.0538 2.05513C27.2144 2.27991 27.3589 2.50469 27.5194 2.72946C27.6158 2.95424 27.696 3.19508 27.7924 3.41986C27.8566 3.75703 27.9369 4.0942 28.0011 4.41531C28.0011 4.6722 28.0011 4.9612 28.0172 5.26626ZM35.8363 6.53466C35.7399 7.22505 35.6275 7.86728 35.4349 8.52556C35.0335 9.36046 35.0335 9.36046 34.7766 9.82607C34.311 10.5325 33.7169 11.1266 33.0907 11.6885C32.4806 12.1541 32.4806 12.1541 31.8224 12.6198C31.0356 13.0854 30.1686 13.4547 29.3337 13.84C29.0126 13.9363 28.6273 14.0166 28.3383 14.1932C28.3383 14.2735 28.3383 14.2735 28.3543 14.3056C29.4301 14.418 30.3773 14.7873 31.2765 15.3813C31.71 15.7506 32.1274 16.1199 32.4967 16.5695C32.9302 17.1956 33.2674 17.8057 33.5243 18.5122C33.5885 18.8012 33.6527 19.0741 33.7169 19.3631C33.7651 19.8127 33.7651 20.2623 33.7651 20.7279C33.6206 22.0444 33.1389 23.2165 32.4325 24.3404C31.9829 24.9666 31.9829 24.9666 31.5333 25.5446C30.7627 26.3474 29.8154 27.2625 28.7878 27.7282C28.0332 28.2901 27.0217 28.6433 26.1547 28.9966C25.6088 29.1571 25.0469 29.3337 24.501 29.5103C23.2647 29.7351 23.2647 29.7351 23.1362 29.7833C22.1889 29.8796 22.1889 29.8796 21.9321 29.9278C16.441 30.1526 10.8857 30.0562 5.39471 30.0562C5.33048 29.9438 5.29837 29.7833 5.44287 29.7191C8.076 29.6067 10.7252 29.4782 13.3583 29.3979C13.8721 29.3979 14.4341 29.414 14.9318 29.3337C16.6979 29.2695 18.4159 29.1892 20.1659 28.9163C20.2783 28.8681 20.7439 28.7718 21.4343 28.5952C24.8542 27.4873 27.969 25.3198 29.414 21.916C29.5103 21.6109 29.5103 21.6109 29.6067 21.4343C29.6869 21.049 29.7672 20.6637 29.8475 20.2783C29.8636 19.331 29.8636 19.331 29.8475 18.9618C29.7191 18.0466 29.3819 17.1314 28.852 16.3768C28.6112 16.1199 28.3864 15.847 28.1456 15.5901C27.0217 14.707 25.9139 14.1129 24.4688 14.0005C24.4688 13.8882 24.501 13.8721 24.5973 13.8239C24.9505 13.7276 24.9505 13.7276 25.4482 13.551C27.7282 12.5555 29.7672 11.2229 31.0517 9.03935C31.1801 8.75034 31.3086 8.44529 31.437 8.14023C31.6618 7.40167 31.7902 6.66311 31.8545 5.89243C31.8223 5.55526 31.8063 5.21809 31.7902 4.88093C31.726 4.6722 31.6618 4.44742 31.5976 4.22264C31.3246 3.56436 31.0356 3.16297 30.5379 2.66524C29.7512 2.03907 28.8681 1.57346 27.8727 1.34868C27.8727 1.33262 27.8727 1.30051 27.8887 1.28445C28.4025 1.18812 29.0287 1.28445 29.5424 1.31657C29.7833 1.36473 29.7833 1.36473 30.6503 1.46107C30.9393 1.52529 31.2283 1.58951 31.5333 1.65373C32.4646 1.91063 33.3958 2.23174 34.1825 2.79369C34.4073 3.00241 34.6481 3.21114 34.8729 3.41986C35.0656 3.72492 35.2583 4.01392 35.4509 4.30292C35.5473 4.59192 35.6436 4.86487 35.7399 5.15387C35.756 5.57132 35.8202 6.05299 35.8363 6.53466Z" fill="#F94F00"/>
</svg>
