<svg width="96" height="23" viewBox="0 0 96 23" fill="none" xmlns="http://www.w3.org/2000/svg">
<path d="M18.3906 19.4985H21.3838L23.7302 10.7546H20.7679L18.3906 19.4985Z" fill="#004A7F"/>
<path d="M33.7344 19.4985H36.7275L39.074 10.7546H36.0808L33.7344 19.4985Z" fill="#004A7F"/>
<path d="M49.1055 19.4985H52.0693L54.3873 10.7546H51.3942L49.1055 19.4985Z" fill="#004A7F"/>
<path d="M30.9459 13.747H33.939C34.3493 11.7824 33.0884 10.7847 30.1545 10.7847C26.751 10.7847 24.4631 12.456 23.6717 15.3029C22.9958 17.9426 24.3753 19.5277 27.5725 19.5277C30.7696 19.5277 32.7065 18.5308 33.4994 16.2705H30.5063C30.0667 17.2675 29.3038 17.7663 28.2484 17.7663C26.8095 17.7663 26.2229 16.8864 26.6633 15.2151C27.1329 13.483 28.2484 12.5153 29.6857 12.5153C30.6241 12.5153 31.0344 12.9256 30.9467 13.747" fill="#004A7F"/>
<path d="M46.3206 13.747H49.3138C49.7241 11.7824 48.4323 10.7847 45.4985 10.7847C42.1242 10.7847 39.8078 12.456 39.0449 15.3029C38.3413 17.9426 39.7193 19.5277 42.918 19.5277C46.1166 19.5277 48.0228 18.5308 48.8434 16.2705H45.8518C45.4399 17.2675 44.6478 17.7663 43.5923 17.7663C42.155 17.7663 41.5684 16.8864 42.0365 15.2151C42.4776 13.483 43.5923 12.5153 45.0296 12.5153C45.9696 12.5153 46.4092 12.9256 46.3214 13.747" fill="#004A7F"/>
<path d="M6.85979 5.91548C10.8491 1.95466 15.6898 0.926924 17.6268 3.62598C19.5637 6.3258 17.8616 11.7817 13.8715 15.7425C9.88141 19.7325 5.04067 20.7587 3.0745 18.0297C1.16838 15.3021 2.87049 9.87399 6.85902 5.91471" fill="#F06321"/>
<path d="M9.49969 3.80237C9.06012 4.12493 8.61977 4.506 8.18019 4.91863C4.68897 8.37906 3.22089 13.132 4.95303 15.5085C6.74213 17.8843 11.0255 17.0043 14.6045 13.5131C16.5414 11.6362 17.8317 9.46453 18.3598 7.44062C18.506 5.94483 18.3013 4.62378 17.6269 3.62684C16.1018 1.51518 12.8154 1.68993 9.50046 3.80314" fill="#AE282E"/>
<path d="M14.5462 4.24184V4.32961C14.517 4.82846 14.2236 5.44433 13.6955 5.97167C12.9034 6.73381 11.8479 7.02712 11.4068 6.58908C10.9079 6.11948 11.2028 5.09175 11.995 4.2711C12.8164 3.47893 13.8718 3.21565 14.3122 3.68448C14.4584 3.83075 14.547 4.00704 14.547 4.24184M11.4969 17.7079C9.61847 19.1159 7.68309 19.8211 5.80469 19.5278C6.59685 19.557 7.24352 18.6756 7.77086 17.5023C8.29897 16.2998 8.59227 15.1851 8.85633 14.1281C9.2374 12.4568 9.26665 11.2836 9.06188 11.0195C8.73931 10.6076 8.03568 10.6969 7.21272 11.1658C6.8024 11.4006 6.27429 11.2535 6.8917 10.4914C7.53683 9.72926 10.0296 7.90936 10.9095 7.61605C11.908 7.35199 13.0227 7.73306 12.6416 8.81854C12.376 9.6107 8.91561 18.6463 11.4976 17.7079" fill="white"/>
<path d="M58.8755 18.1182L59.5499 15.5962H61.192V14.2474H59.931L60.5176 12.105H61.192V10.7839H58.9617L56.6445 19.5278H61.192V18.1182H58.8748H58.8755ZM61.1927 15.5962H61.5153C63.0126 15.5962 63.7163 15.8603 63.423 16.8864C63.1882 17.7956 62.4553 18.1182 61.1927 18.1182V19.5278C62.426 19.5278 63.3352 19.4108 64.2444 18.7933C64.8602 18.383 65.3014 17.7671 65.4777 17.0627C65.7987 15.8603 65.2706 15.0373 63.8926 14.8633C65.1828 14.6285 66.0058 13.9526 66.2683 12.8971C66.5031 12.105 66.2975 11.5184 65.7402 11.1373C65.2706 10.8147 64.4792 10.7839 63.423 10.7839H61.1927V12.105H62.3383C63.7463 12.105 64.3914 12.2813 64.1859 13.1604C63.9218 14.0111 63.1597 14.2467 61.7224 14.2467H61.1927V15.5954V15.5962Z" fill="#004A7F"/>
<path d="M69.4085 13.3968V14.4808C69.1737 14.5993 68.9689 14.8049 68.8804 15.0982H67.1205C67.4123 14.2475 68.206 13.6594 69.4077 13.3968M69.4077 18.5309C69.2022 18.5894 68.9681 18.6187 68.7333 18.6187C67.9412 18.6187 67.5893 18.2946 67.7656 17.7079C67.9419 17.0336 68.4693 16.7988 69.4077 16.711V15.6848C67.3823 15.8311 66.2683 16.3592 65.9165 17.6795C65.5939 18.8819 66.3576 19.6749 67.9419 19.6749C68.47 19.6749 68.9681 19.5871 69.4085 19.4108V18.5309H69.4077ZM71.1098 16.711L71.0806 16.7988C70.8458 17.7079 70.2283 18.3253 69.4077 18.5309V19.4108C69.8473 19.2338 70.2291 19.0005 70.5809 18.6779L70.4347 19.5286H72.1961C72.2838 19.1167 72.3724 18.6471 72.4894 18.1783L73.1637 15.7148C73.2223 15.5093 73.2515 15.3045 73.2515 15.099V14.8056C73.193 13.8072 72.3423 13.2791 70.7588 13.2791C70.2584 13.2791 69.8188 13.3376 69.4085 13.3976V14.4815C69.6725 14.336 69.9951 14.2775 70.407 14.2775C71.3146 14.2775 71.668 14.6863 71.4024 15.5678L71.3746 15.6555H70.4347C70.0844 15.6555 69.731 15.6848 69.4085 15.6848V16.711H71.1114H71.1098Z" fill="#004A7F"/>
<path d="M73.7793 19.5279H75.5699L76.4206 16.3885C76.7139 15.2737 77.7401 14.4808 78.8256 14.4808C79.9111 14.4808 80.2644 15.0982 79.9118 16.33L79.0596 19.5279H80.8503L81.8472 15.8019C82.2575 14.2183 81.4661 13.2783 79.7063 13.2783C78.5608 13.2783 77.6516 13.6886 76.8602 14.5101L77.0657 13.4246H75.2766C75.1003 14.3923 74.9833 14.9804 74.9233 15.2152L73.7793 19.5279Z" fill="#004A7F"/>
<path d="M82.4336 19.5277H84.195L85.0749 16.2412L87.4522 19.5277H89.8864L87.1866 16.0364L90.8248 13.4251H88.5669L85.1927 15.8609L86.5415 10.7861H84.7816L82.4336 19.5284V19.5277Z" fill="#004A7F"/>
</svg>
